<svg xmlns="http://www.w3.org/2000/svg" width="340" height="56" fill="none" viewBox="0 0 340 56" role="img"><title>Casa Bonita</title><path fill="currentColor" d="M145.926 17.045c-.667.039-1.296.116-1.815.27-.815.193-1.815.309-2.963.309-1.148 0-2.148 0-3.037-.077-.518 0-1.074-.116-1.704-.232-.666-.116-1.296.386-1.296 1.042 0 .81-.889 1.311-1.592.964-2.26-1.697-5-2.7-7.963-2.7-7.889 0-14.26 7.136-14.26 15.893 0 8.756 6.408 15.893 14.26 15.893 2.925 0 5.444-1.234 7.888-2.662.667-.386 1.519.193 1.519 1.003 0 .656.63 1.196 1.296 1.042.63-.116 2.482-.347 4.741-.309 2.037 0 4.111.502 4.778.54.629.039 1.185-.463 1.185-1.08v-.116c0-.54-.37-1.003-.926-1.041a7.92 7.92 0 0 1-.926-.193 4.316 4.316 0 0 1-1.667-.849c-.481-.386-.888-.926-1.222-1.543-.333-.656-.481-1.466-.481-2.43v-2.507a42.79 42.79 0 0 0 .111-3.164v-10.84c0-1.002.148-1.812.481-2.43.334-.655.741-1.157 1.223-1.543a4.313 4.313 0 0 1 1.666-.848c.297-.077.63-.155.926-.193.519-.077.926-.54.926-1.042v-.115c0-.618-.518-1.12-1.148-1.08v.038Zm-18.963 26.733c-4.259 0-7.741-4.32-7.741-11.187 0-6.867 3.445-11.187 7.741-11.187 4.296 0 7.741 4.32 7.741 11.187 0 6.866-3.445 11.187-7.741 11.187Zm2.963-11.997c0 1.543-1.185 2.777-2.667 2.777-1.481 0-2.666-1.234-2.666-2.777 0-1.543 1.185-2.777 2.666-2.777 1.482 0 2.667 1.234 2.667 2.777Zm204.852 3.356v-10.84c0-1.003.148-1.813.481-2.43.334-.656.741-1.157 1.222-1.543a4.323 4.323 0 0 1 1.667-.849c.296-.077.63-.154.926-.193.519-.077.926-.54.926-1.041v-.116c0-.617-.519-1.119-1.185-1.08-.667.039-1.297.116-1.815.27-.815.193-1.815.309-2.963.309-1.148 0-2.148 0-3.037-.077-.519 0-1.074-.116-1.704-.232-.666-.116-1.296.386-1.296 1.042 0 .81-.889 1.311-1.593.964-2.259-1.697-5-2.7-7.963-2.7-7.888 0-14.259 7.098-14.259 15.893 0 8.795 6.408 15.893 14.259 15.893 2.926 0 5.445-1.234 7.889-2.662.667-.386 1.519.193 1.519 1.003 0 .656.629 1.196 1.296 1.042.63-.116 2.482-.347 4.741-.309 2.037 0 4.111.502 4.778.54.629.039 1.185-.463 1.185-1.08v-.116c0-.54-.371-1.003-.926-1.041a7.92 7.92 0 0 1-.926-.193 4.316 4.316 0 0 1-1.667-.849c-.481-.386-.889-.926-1.222-1.543-.333-.656-.481-1.466-.481-2.43v-2.507a42.79 42.79 0 0 0 .111-3.164l.037.039Zm-14.926 8.64c-4.259 0-7.741-4.32-7.741-11.186 0-6.867 3.445-11.187 7.741-11.187 4.296 0 7.741 4.32 7.741 11.187 0 6.866-3.445 11.187-7.741 11.187Zm2.963-11.996c0 1.543-1.185 2.777-2.667 2.777-1.481 0-2.667-1.234-2.667-2.777 0-1.543 1.186-2.777 2.667-2.777 1.482 0 2.667 1.234 2.667 2.777ZM82.037 17.045c-.667.039-1.296.116-1.815.27-.815.193-1.815.309-2.963.309-1.148 0-2.148 0-3.037-.077-.518 0-1.074-.116-1.703-.232-.667-.116-1.297.386-1.297 1.042 0 .81-.889 1.311-1.592.964-2.26-1.697-5-2.7-7.963-2.7-7.89 0-14.26 7.098-14.26 15.893 0 8.795 6.408 15.893 14.26 15.893 2.926 0 5.444-1.234 7.889-2.662.666-.386 1.518.193 1.518 1.003 0 .656.63 1.196 1.296 1.042.63-.116 2.482-.347 4.741-.309 2.037 0 4.111.502 4.778.54.63.039 1.185-.463 1.185-1.08v-.116c0-.54-.37-1.003-.926-1.041a7.922 7.922 0 0 1-.926-.193 4.314 4.314 0 0 1-1.666-.849c-.482-.386-.89-.926-1.223-1.543-.333-.656-.481-1.466-.481-2.43v-2.507c.074-1.003.111-2.045.111-3.164v-10.84c0-1.002.148-1.812.481-2.43.334-.655.741-1.157 1.223-1.543a4.314 4.314 0 0 1 1.666-.848c.297-.077.63-.155.926-.193.519-.077.926-.54.926-1.042v-.115c0-.618-.518-1.12-1.148-1.08v.038ZM63.074 43.778c-4.26 0-7.74-4.32-7.74-11.187 0-6.867 3.444-11.187 7.74-11.187s7.74 4.32 7.74 11.187c0 6.866-3.444 11.187-7.74 11.187Zm2.963-11.997c0 1.543-1.185 2.777-2.667 2.777-1.481 0-2.666-1.234-2.666-2.777 0-1.543 1.185-2.777 2.666-2.777 1.482 0 2.667 1.234 2.667 2.777Zm43.667 7.6c0 4.628-3.185 7.753-7.26 8.91-4.777 1.389-8.888-.771-13.555-1.813-1.185-.27-2.963 2.006-3.26-.154-.185-1.235.371-2.855 0-4.205-.259-.849-1.925-5.323.297-5.208.889 0 1.185 1.93 1.555 2.585.778 1.427 1.963 2.584 3.112 3.703 2.592 2.469 9.666 3.356 9.888-1.736.223-5.4-8.925-5.94-12.63-10.762-5.888-7.098.779-14.813 9.223-14.389 2.333.116 4.741 1.852 6.37 1.697.778-.077 2.519-1.697 3.223-1.697.555 0 .814.424.814 1.312 0 2.314.075 4.166.186 5.555.148 1.388.185 2.198.185 2.507-.111 1.427-1.371.964-1.815-.424-2.407-4.745-5.667-7.098-9.926-4.63-2.074 1.466-1.74 4.514-.074 5.903 5.63 3.934 13.63 6.789 13.593 12.845h.074Zm110.777-23.416c-6.444 0-12 4.205-14.407 10.184-2.259-3.009-5.593-5.246-9.185-6.056-.111 0-.222 0-.333-.039 4.296-2.469 7.963-6.365 7.963-9.49 0-2.816-1.852-5.246-4.075-6.673-2.259-1.582-5.37-2.739-8.851-3.163-4.074-.733-9.519-1.042-16.667-.309-22.63 2.353-22.407 19.52-19.482 23.454 5.408 7.33 13.741 2.353 13.741 2.353a6.153 6.153 0 0 0 2.778-2.855c1.37-2.931.37-6.364-2.222-7.676-2.26-1.157-5.037-.309-6.593 1.89a5.036 5.036 0 0 0-.926 1.736c-.37 1.273-1.222 2.546-2.592 2.122-.741-.232-1.815-1.389-.741-5.015 1.518-5.13 7.926-15.662 29.037-12.113 5.296.887 8.518 4.784 8.518 8.757 0 .733-.148 1.427-.37 2.16-1.37 2.739-3.63 4.398-6.481 5.478-2.297.848-5.297 1.003-5.593-2.006-.222-2.508.889-4.012 2.296-5.825.371-.463.852-1.427.223-1.852-.63-.424-1.926.54-2.445.888-1.778 1.157-4.259 2.623-6.555 2.314-.223 0-.482-.038-.741-.077-.778-.154-1.519.424-1.519 1.196l.408 8.023c.185 4.938.407 16.55.407 16.55 0 1.157-.185 2.082-.593 2.815-.37.733-.851 1.35-1.444 1.813-.556.463-1.222.772-1.963 1.003-.37.116-.741.155-1.111.232a1.231 1.231 0 0 0-1.074 1.234v.116c0 .733.63 1.312 1.37 1.234.778-.038 4.297-.656 10.963-.656 5.371 0 10.334 2.315 15.704.926 3.741-.964 7.185-3.279 9.222-6.712 2.778 4.668 7.667 7.792 13.222 7.792 8.667 0 15.667-7.522 15.667-16.818 0-9.297-7-16.82-15.667-16.82l.111-.115Zm-29 28.623c-1.925 0-3.925-.54-5.333-1.967-1.444-1.466-1.444-3.048-1.444-5.054v-8.95c0-4.358 4.926-4.474 4.926-4.474 8.555 0 10.333 7.06 10.333 10.531 0 3.472-2.667 9.914-8.482 9.914Zm29.556.309c-4.667 0-8.444-5.092-8.444-12.113 0-7.02 3.777-12.113 8.444-12.113 4.667 0 8.444 5.092 8.444 12.113 0 7.02-3.777 12.113-8.444 12.113Zm3.148-12.807c0 1.62-1.259 2.931-2.815 2.931-1.555 0-2.814-1.311-2.814-2.931s1.259-2.932 2.814-2.932c1.556 0 2.815 1.311 2.815 2.931Zm28.741 2.816c-1.482 0-2.667-1.235-2.667-2.778s1.185-2.777 2.667-2.777c1.481 0 2.667 1.234 2.667 2.777 0 1.543-1.186 2.778-2.667 2.778Zm9.259 12.845c-.037.463 0 .926.185 1.389.334 1.08 1.111 2.16 1.778 2.854.741.772 3.037 3.01 1.148 3.897-.963.462-1.629-.656-2.222-1.235-1.148-1.119-2.37-2.314-3.704-3.163-.926-.579-2.407-1.312-3.481-1.505-.593-.115-1.667-.077-2.074-.887-.445-.848.333-2.006.778-2.739 2.592-4.436 5.814-9.644 6.296-14.89.037-.54.037-1.196 0-1.851 0-4.128-3.222-7.522-7.222-7.522-3.63 0-7.593 4.976-7.593 5.901l-.407 10.262v2.545c0 1.003.148 1.814.481 2.47.333.655.704 1.157 1.148 1.58a3.78 3.78 0 0 0 1.593.85c.296.077.592.154.889.193.518.077.889.54.889 1.08v.115c0 .617-.519 1.119-1.111 1.08-.63-.038-4.963-.694-7.037-.694-2.075 0-4.556.27-5.408.386-.518.077-1.074.231-1.704.27-.592.038-1.111-.463-1.111-1.08v-.116c0-.54.371-1.003.889-1.08a7.32 7.32 0 0 0 .889-.193 4.924 4.924 0 0 0 1.593-.849 4.614 4.614 0 0 0 1.148-1.581c.296-.656.481-1.466.481-2.469v-2.546a43.867 43.867 0 0 1-.111-3.202V24.027c0-1.003-.148-1.813-.481-2.469a5.034 5.034 0 0 0-1.148-1.581 3.782 3.782 0 0 0-1.593-.849 7.32 7.32 0 0 0-.889-.193c-.518-.077-.889-.54-.889-1.08v-.116c0-.617.519-1.118 1.111-1.08.63.039 1.223.116 1.704.27.778.193 1.741.309 2.815.309 1.074 0 2.889 0 3.704-.077.481 0 1.037-.116 1.666-.232.63-.115 1.222.386 1.222 1.042l-.222 3.433c0 .887.445 1.389 1.111.887 1.963-2.7 5.852-4.552 9.371-4.552 5 0 9.148 3.627 9.852 8.294 1.259 5.13-.667 12.499-2.186 16.433-.629 1.62-1.852 3.55-2.037 5.246l-.111.04Zm42.148-27.003c-.259.27-.629.309-.889.078-.888-.772-3.185-2.122-7.074-2.662v2.931c-.074 5.247-.111 10.493-.185 15.74 0 2.082-.037 4.204-.074 6.287 0 3.202 2.667 5.516 4.704 7.638.889.926 3.703 3.665 1.407 4.783-1.185.579-1.963-.81-2.741-1.543-1.407-1.35-2.888-2.816-4.555-3.896-1.111-.733-2.963-1.581-4.259-1.813-.741-.116-2.037-.116-2.556-1.118-.704-1.39.778-2.894 1-4.205.148-.965 0-2.122 0-3.125v-7.985c0-4.513.037-9.065-.111-13.579v-.192c-1.63.192-3.407.501-5.37 1.003a.75.75 0 0 1-.63-.155l-.852-.848c-.444-.425-.296-1.273.259-1.466a31.523 31.523 0 0 1 6.408-1.389c-.111-1.89-.222-3.78-.371-5.67-.148-1.852-.185-3.202 1.667-3.82 1.963-.617 4.222-.732 5.852-2.121C297 2.734 297.444.843 298.852.496c1.889-.424 1.222 1.929.741 3.01-.667 1.504-1.963 2.738-2.519 4.281-.518 1.504-.518 3.125-.593 4.706a65.766 65.766 0 0 0-.074 2.7c2.112.232 4.334.695 6.63 1.505 1.482.501 2.37.849 5.519-3.163.259-.348.703-.348.963-.039a.97.97 0 0 1 0 1.235l-5.186 5.94v.077ZM283.37 46.632c.149.502-.111 1.042-.555 1.273-.667.386-1.408.232-2.111.078-3.445-.695-7.519-.695-11 0-.63.115-1.26.27-1.852 0-.259-.116-.519-.386-.593-.656-.222-.656.297-1.157.815-1.389.444-.154.889-.193 1.333-.347 1.334-.425 2.223-1.736 2.556-3.125.37-1.388.259-2.854.185-4.282-.185-3.973-.111-7.946-.037-11.92 0-1.35.037-2.738-.333-4.011-.408-1.312-1.26-2.508-2.519-2.893-.444-.155-.889-.193-1.333-.348-.556-.192-1.037-.733-.852-1.388.111-.309.333-.54.593-.695.666-.308 1.333-.115 2 0 2.259.502 5.111.54 7.37.155.63-.116 1.333-.232 1.741.463.185.347.185.732.111 1.118-.074.309-.185.617-.259.926a16.758 16.758 0 0 0-.482 3.047c0 .425.037 12.576.111 16.588 0 1.312.037 2.623.445 3.819.407 1.234 1.296 2.353 2.518 2.662.778.193 1.778.231 2.037 1.003l.111-.078Zm-9.407-43.204c2.704 0 4.926 2.276 4.926 5.13 0 2.855-2.185 5.131-4.926 5.131s-4.926-2.276-4.926-5.13c0-2.855 2.185-5.131 4.926-5.131ZM46.223 37.644c.444.386.518 1.119.147 1.582-4.666 6.095-12.185 10.068-20.666 10.068C11.518 49.294 0 38.956 0 25.224 0 12.531 9.852 2.077 22.593.573c1.63-.31 3.222-.31 4.963-.193 2.74.154 5.296.501 7.963 1.234 2.296.617 4.333 1.003 6.666.733.593-.077 2.519-.347 2.852.578 0 .078.037.155.037.232 0 .424 0 .849.037 1.312.26 7.213.889 15.237-2.963 21.602-3.963 6.596-16.185 7.445-19.148-.887-.815-2.238-1-5.478.333-7.716.815-1.774 2.667-3.047 4.852-3.047 2.926 0 5.26 2.237 5.26 4.976 0 2.238-1.556 4.128-3.667 4.784.074.385.222.771.444 1.118 1.445 2.238 4.148 1.929 6.148.81 2.37-1.311 4-3.51 4.186-6.326.11-1.697-.037-3.973-.704-5.593 0-.078-.074-.155-.111-.232-2.704-5.246-7.148-8.68-12.185-8.68-8.223 0-14.852 9.066-14.852 20.253 0 10.53 5.889 18.014 13.407 19.017 2.407.309 4.445.463 6.852.039 5.37-.887 8.63-3.318 11.556-6.712.444-.54 1.148-.733 1.666-.27l.037.038Zm99.703-20.599c-.667.039-1.296.116-1.815.27-.815.193-1.815.309-2.963.309-1.148 0-2.148 0-3.037-.077-.518 0-1.074-.116-1.704-.232-.666-.116-1.296.386-1.296 1.042 0 .81-.889 1.311-1.592.964-2.26-1.697-5-2.7-7.963-2.7-7.889 0-14.26 7.136-14.26 15.893 0 8.756 6.408 15.893 14.26 15.893 2.925 0 5.444-1.234 7.888-2.662.667-.386 1.519.193 1.519 1.003 0 .656.63 1.196 1.296 1.042.63-.116 2.482-.347 4.741-.309 2.037 0 4.111.502 4.778.54.629.039 1.185-.463 1.185-1.08v-.116c0-.54-.37-1.003-.926-1.041a7.92 7.92 0 0 1-.926-.193 4.316 4.316 0 0 1-1.667-.849c-.481-.386-.888-.926-1.222-1.543-.333-.656-.481-1.466-.481-2.43v-2.507a42.79 42.79 0 0 0 .111-3.164v-10.84c0-1.002.148-1.812.481-2.43.334-.655.741-1.157 1.223-1.543a4.313 4.313 0 0 1 1.666-.848c.297-.077.63-.155.926-.193.519-.077.926-.54.926-1.042v-.115c0-.618-.518-1.12-1.148-1.08v.038Zm-18.963 26.733c-4.259 0-7.741-4.32-7.741-11.187 0-6.867 3.445-11.187 7.741-11.187 4.296 0 7.741 4.32 7.741 11.187 0 6.866-3.445 11.187-7.741 11.187Zm2.963-11.997c0 1.543-1.185 2.777-2.667 2.777-1.481 0-2.666-1.234-2.666-2.777 0-1.543 1.185-2.777 2.666-2.777 1.482 0 2.667 1.234 2.667 2.777Zm204.852 3.356v-10.84c0-1.003.148-1.813.481-2.43.334-.656.741-1.157 1.222-1.543a4.323 4.323 0 0 1 1.667-.849c.296-.077.63-.154.926-.193.519-.077.926-.54.926-1.041v-.116c0-.617-.519-1.119-1.185-1.08-.667.039-1.297.116-1.815.27-.815.193-1.815.309-2.963.309-1.148 0-2.148 0-3.037-.077-.519 0-1.074-.116-1.704-.232-.666-.116-1.296.386-1.296 1.042 0 .81-.889 1.311-1.593.964-2.259-1.697-5-2.7-7.963-2.7-7.888 0-14.259 7.098-14.259 15.893 0 8.795 6.408 15.893 14.259 15.893 2.926 0 5.445-1.234 7.889-2.662.667-.386 1.519.193 1.519 1.003 0 .656.629 1.196 1.296 1.042.63-.116 2.482-.347 4.741-.309 2.037 0 4.111.502 4.778.54.629.039 1.185-.463 1.185-1.08v-.116c0-.54-.371-1.003-.926-1.041a7.92 7.92 0 0 1-.926-.193 4.316 4.316 0 0 1-1.667-.849c-.481-.386-.889-.926-1.222-1.543-.333-.656-.481-1.466-.481-2.43v-2.507a42.79 42.79 0 0 0 .111-3.164l.037.039Zm-14.926 8.64c-4.259 0-7.741-4.32-7.741-11.186 0-6.867 3.445-11.187 7.741-11.187 4.296 0 7.741 4.32 7.741 11.187 0 6.866-3.445 11.187-7.741 11.187Zm2.963-11.996c0 1.543-1.185 2.777-2.667 2.777-1.481 0-2.667-1.234-2.667-2.777 0-1.543 1.186-2.777 2.667-2.777 1.482 0 2.667 1.234 2.667 2.777ZM82.037 17.045c-.667.039-1.296.116-1.815.27-.815.193-1.815.309-2.963.309-1.148 0-2.148 0-3.037-.077-.518 0-1.074-.116-1.703-.232-.667-.116-1.297.386-1.297 1.042 0 .81-.889 1.311-1.592.964-2.26-1.697-5-2.7-7.963-2.7-7.89 0-14.26 7.098-14.26 15.893 0 8.795 6.408 15.893 14.26 15.893 2.926 0 5.444-1.234 7.889-2.662.666-.386 1.518.193 1.518 1.003 0 .656.63 1.196 1.296 1.042.63-.116 2.482-.347 4.741-.309 2.037 0 4.111.502 4.778.54.63.039 1.185-.463 1.185-1.08v-.116c0-.54-.37-1.003-.926-1.041a7.922 7.922 0 0 1-.926-.193 4.314 4.314 0 0 1-1.666-.849c-.482-.386-.89-.926-1.223-1.543-.333-.656-.481-1.466-.481-2.43v-2.507c.074-1.003.111-2.045.111-3.164v-10.84c0-1.002.148-1.812.481-2.43.334-.655.741-1.157 1.223-1.543a4.314 4.314 0 0 1 1.666-.848c.297-.077.63-.155.926-.193.519-.077.926-.54.926-1.042v-.115c0-.618-.518-1.12-1.148-1.08v.038ZM63.074 43.778c-4.26 0-7.74-4.32-7.74-11.187 0-6.867 3.444-11.187 7.74-11.187s7.74 4.32 7.74 11.187c0 6.866-3.444 11.187-7.74 11.187Zm2.963-11.997c0 1.543-1.185 2.777-2.667 2.777-1.481 0-2.666-1.234-2.666-2.777 0-1.543 1.185-2.777 2.666-2.777 1.482 0 2.667 1.234 2.667 2.777Zm43.667 7.6c0 4.628-3.185 7.753-7.26 8.91-4.777 1.389-8.888-.771-13.555-1.813-1.185-.27-2.963 2.006-3.26-.154-.185-1.235.371-2.855 0-4.205-.259-.849-1.925-5.323.297-5.208.889 0 1.185 1.93 1.555 2.585.778 1.427 1.963 2.584 3.112 3.703 2.592 2.469 9.666 3.356 9.888-1.736.223-5.4-8.925-5.94-12.63-10.762-5.888-7.098.779-14.813 9.223-14.389 2.333.116 4.741 1.852 6.37 1.697.778-.077 2.519-1.697 3.223-1.697.555 0 .814.424.814 1.312 0 2.314.075 4.166.186 5.555.148 1.388.185 2.198.185 2.507-.111 1.427-1.371.964-1.815-.424-2.407-4.745-5.667-7.098-9.926-4.63-2.074 1.466-1.74 4.514-.074 5.903 5.63 3.934 13.63 6.789 13.593 12.845h.074Zm110.777-23.416c-6.444 0-12 4.205-14.407 10.184-2.259-3.009-5.593-5.246-9.185-6.056-.111 0-.222 0-.333-.039 4.296-2.469 7.963-6.365 7.963-9.49 0-2.816-1.852-5.246-4.075-6.673-2.259-1.582-5.37-2.739-8.851-3.163-4.074-.733-9.519-1.042-16.667-.309-22.63 2.353-22.407 19.52-19.482 23.454 5.408 7.33 13.741 2.353 13.741 2.353a6.153 6.153 0 0 0 2.778-2.855c1.37-2.931.37-6.364-2.222-7.676-2.26-1.157-5.037-.309-6.593 1.89a5.036 5.036 0 0 0-.926 1.736c-.37 1.273-1.222 2.546-2.592 2.122-.741-.232-1.815-1.389-.741-5.015 1.518-5.13 7.926-15.662 29.037-12.113 5.296.887 8.518 4.784 8.518 8.757 0 .733-.148 1.427-.37 2.16-1.37 2.739-3.63 4.398-6.481 5.478-2.297.848-5.297 1.003-5.593-2.006-.222-2.508.889-4.012 2.296-5.825.371-.463.852-1.427.223-1.852-.63-.424-1.926.54-2.445.888-1.778 1.157-4.259 2.623-6.555 2.314-.223 0-.482-.038-.741-.077-.778-.154-1.519.424-1.519 1.196l.408 8.023c.185 4.938.407 16.55.407 16.55 0 1.157-.185 2.082-.593 2.815-.37.733-.851 1.35-1.444 1.813-.556.463-1.222.772-1.963 1.003-.37.116-.741.155-1.111.232a1.231 1.231 0 0 0-1.074 1.234v.116c0 .733.63 1.312 1.37 1.234.778-.038 4.297-.656 10.963-.656 5.371 0 10.334 2.315 15.704.926 3.741-.964 7.185-3.279 9.222-6.712 2.778 4.668 7.667 7.792 13.222 7.792 8.667 0 15.667-7.522 15.667-16.818 0-9.297-7-16.82-15.667-16.82l.111-.115Zm-29 28.623c-1.925 0-3.925-.54-5.333-1.967-1.444-1.466-1.444-3.048-1.444-5.054v-8.95c0-4.358 4.926-4.474 4.926-4.474 8.555 0 10.333 7.06 10.333 10.531 0 3.472-2.667 9.914-8.482 9.914Zm29.556.309c-4.667 0-8.444-5.092-8.444-12.113 0-7.02 3.777-12.113 8.444-12.113 4.667 0 8.444 5.092 8.444 12.113 0 7.02-3.777 12.113-8.444 12.113Zm3.148-12.807c0 1.62-1.259 2.931-2.815 2.931-1.555 0-2.814-1.311-2.814-2.931s1.259-2.932 2.814-2.932c1.556 0 2.815 1.311 2.815 2.931Zm28.741 2.816c-1.482 0-2.667-1.235-2.667-2.778s1.185-2.777 2.667-2.777c1.481 0 2.667 1.234 2.667 2.777 0 1.543-1.186 2.778-2.667 2.778Zm9.259 12.845c-.037.463 0 .926.185 1.389.334 1.08 1.111 2.16 1.778 2.854.741.772 3.037 3.01 1.148 3.897-.963.462-1.629-.656-2.222-1.235-1.148-1.119-2.37-2.314-3.704-3.163-.926-.579-2.407-1.312-3.481-1.505-.593-.115-1.667-.077-2.074-.887-.445-.848.333-2.006.778-2.739 2.592-4.436 5.814-9.644 6.296-14.89.037-.54.037-1.196 0-1.851 0-4.128-3.222-7.522-7.222-7.522-3.63 0-7.593 4.976-7.593 5.901l-.407 10.262v2.545c0 1.003.148 1.814.481 2.47.333.655.704 1.157 1.148 1.58a3.78 3.78 0 0 0 1.593.85c.296.077.592.154.889.193.518.077.889.54.889 1.08v.115c0 .617-.519 1.119-1.111 1.08-.63-.038-4.963-.694-7.037-.694-2.075 0-4.556.27-5.408.386-.518.077-1.074.231-1.704.27-.592.038-1.111-.463-1.111-1.08v-.116c0-.54.371-1.003.889-1.08a7.32 7.32 0 0 0 .889-.193 4.924 4.924 0 0 0 1.593-.849 4.614 4.614 0 0 0 1.148-1.581c.296-.656.481-1.466.481-2.469v-2.546a43.867 43.867 0 0 1-.111-3.202V24.027c0-1.003-.148-1.813-.481-2.469a5.034 5.034 0 0 0-1.148-1.581 3.782 3.782 0 0 0-1.593-.849 7.32 7.32 0 0 0-.889-.193c-.518-.077-.889-.54-.889-1.08v-.116c0-.617.519-1.118 1.111-1.08.63.039 1.223.116 1.704.27.778.193 1.741.309 2.815.309 1.074 0 2.889 0 3.704-.077.481 0 1.037-.116 1.666-.232.63-.115 1.222.386 1.222 1.042l-.222 3.433c0 .887.445 1.389 1.111.887 1.963-2.7 5.852-4.552 9.371-4.552 5 0 9.148 3.627 9.852 8.294 1.259 5.13-.667 12.499-2.186 16.433-.629 1.62-1.852 3.55-2.037 5.246l-.111.04Zm42.148-27.003c-.259.27-.629.309-.889.078-.888-.772-3.185-2.122-7.074-2.662v2.931c-.074 5.247-.111 10.493-.185 15.74 0 2.082-.037 4.204-.074 6.287 0 3.202 2.667 5.516 4.704 7.638.889.926 3.703 3.665 1.407 4.783-1.185.579-1.963-.81-2.741-1.543-1.407-1.35-2.888-2.816-4.555-3.896-1.111-.733-2.963-1.581-4.259-1.813-.741-.116-2.037-.116-2.556-1.118-.704-1.39.778-2.894 1-4.205.148-.965 0-2.122 0-3.125v-7.985c0-4.513.037-9.065-.111-13.579v-.192c-1.63.192-3.407.501-5.37 1.003a.75.75 0 0 1-.63-.155l-.852-.848c-.444-.425-.296-1.273.259-1.466a31.523 31.523 0 0 1 6.408-1.389c-.111-1.89-.222-3.78-.371-5.67-.148-1.852-.185-3.202 1.667-3.82 1.963-.617 4.222-.732 5.852-2.121C297 2.734 297.444.843 298.852.496c1.889-.424 1.222 1.929.741 3.01-.667 1.504-1.963 2.738-2.519 4.281-.518 1.504-.518 3.125-.593 4.706a65.766 65.766 0 0 0-.074 2.7c2.112.232 4.334.695 6.63 1.505 1.482.501 2.37.849 5.519-3.163.259-.348.703-.348.963-.039a.97.97 0 0 1 0 1.235l-5.186 5.94v.077ZM283.37 46.632c.149.502-.111 1.042-.555 1.273-.667.386-1.408.232-2.111.078-3.445-.695-7.519-.695-11 0-.63.115-1.26.27-1.852 0-.259-.116-.519-.386-.593-.656-.222-.656.297-1.157.815-1.389.444-.154.889-.193 1.333-.347 1.334-.425 2.223-1.736 2.556-3.125.37-1.388.259-2.854.185-4.282-.185-3.973-.111-7.946-.037-11.92 0-1.35.037-2.738-.333-4.011-.408-1.312-1.26-2.508-2.519-2.893-.444-.155-.889-.193-1.333-.348-.556-.192-1.037-.733-.852-1.388.111-.309.333-.54.593-.695.666-.308 1.333-.115 2 0 2.259.502 5.111.54 7.37.155.63-.116 1.333-.232 1.741.463.185.347.185.732.111 1.118-.074.309-.185.617-.259.926a16.758 16.758 0 0 0-.482 3.047c0 .425.037 12.576.111 16.588 0 1.312.037 2.623.445 3.819.407 1.234 1.296 2.353 2.518 2.662.778.193 1.778.231 2.037 1.003l.111-.078Zm-9.407-43.204c2.704 0 4.926 2.276 4.926 5.13 0 2.855-2.185 5.131-4.926 5.131s-4.926-2.276-4.926-5.13c0-2.855 2.185-5.131 4.926-5.131Z"></path></svg>